<svg width="28" height="28" viewBox="0 0 28 28" fill="none" xmlns="http://www.w3.org/2000/svg">
<path d="M25.7866 0.90625L20.5466 1.94625L24.1999 6.66625L26.8266 6.13292L25.7866 0.90625ZM16.6266 2.71958L13.9999 3.23958L17.6666 7.94625L20.2799 7.42625L16.6266 2.71958ZM10.0932 3.99958L7.46658 4.54625L11.1332 9.25292L13.7466 8.73292L10.0932 3.99958ZM3.54658 5.33292L2.23991 5.58625C1.54709 5.72468 0.937514 6.13238 0.545032 6.71986C0.152551 7.30733 0.00924417 8.02654 0.146578 8.71958L0.666578 11.3329L7.19991 10.0396L3.54658 5.33292ZM0.666578 11.3329V24.6663C0.666578 25.3735 0.947529 26.0518 1.44763 26.5519C1.94772 27.052 2.626 27.3329 3.33324 27.3329H24.6666C26.1466 27.3329 27.3332 26.1462 27.3332 24.6663V11.3329H0.666578Z" fill="#F2F2F2"/>
</svg>
