<svg width="28" height="28" viewBox="0 0 28 28" fill="none" xmlns="http://www.w3.org/2000/svg">
<path d="M13.9998 24.666C16.8288 24.666 19.5419 23.5422 21.5423 21.5418C23.5427 19.5414 24.6665 16.8283 24.6665 13.9993C24.6665 11.1704 23.5427 8.45726 21.5423 6.45688C19.5419 4.45649 16.8288 3.33268 13.9998 3.33268C11.1709 3.33268 8.45775 4.45649 6.45737 6.45688C4.45698 8.45726 3.33317 11.1704 3.33317 13.9993C3.33317 16.8283 4.45698 19.5414 6.45737 21.5418C8.45775 23.5422 11.1709 24.666 13.9998 24.666ZM13.9998 0.666016C15.7508 0.666016 17.4846 1.01089 19.1023 1.68096C20.72 2.35102 22.1898 3.33314 23.4279 4.57126C24.666 5.80937 25.6482 7.27923 26.3182 8.8969C26.9883 10.5146 27.3332 12.2484 27.3332 13.9993C27.3332 17.5356 25.9284 20.927 23.4279 23.4274C20.9274 25.9279 17.5361 27.3327 13.9998 27.3327C6.6265 27.3327 0.666504 21.3327 0.666504 13.9993C0.666504 10.4631 2.07126 7.07174 4.57175 4.57126C7.07223 2.07077 10.4636 0.666016 13.9998 0.666016ZM14.6665 7.33268V14.3327L20.6665 17.8927L19.6665 19.5327L12.6665 15.3327V7.33268H14.6665Z" fill="#F2F2F2"/>
</svg>
