<svg width="15" height="19" viewBox="0 0 15 19" fill="none" xmlns="http://www.w3.org/2000/svg">
<path d="M7.80018 0.634766C5.39014 0.634766 3.43654 2.58837 3.43654 4.9984C3.43654 7.40844 5.39014 9.36204 7.80018 9.36204C10.2102 9.36204 12.1638 7.40844 12.1638 4.9984C12.1638 2.58837 10.2102 0.634766 7.80018 0.634766ZM2.6729 11.1075C2.18112 11.1075 1.70948 11.3028 1.3617 11.6505C1.01392 11.9982 0.818475 12.4698 0.818359 12.9616V13.2893C0.818359 14.9279 1.66578 16.1549 2.96527 16.946C4.24381 17.7241 5.96134 18.0893 7.80018 18.0893C9.63901 18.0893 11.3565 17.7241 12.6351 16.946C13.9346 16.1549 14.782 14.9279 14.782 13.2893V12.9616C14.7819 12.4698 14.5864 11.9982 14.2387 11.6505C13.8909 11.3028 13.4192 11.1075 12.9275 11.1075H2.6729Z" fill="white" fill-opacity="0.75"/>
</svg>
