<svg width="6" height="22" viewBox="0 0 6 22" fill="none" xmlns="http://www.w3.org/2000/svg">
<path d="M3.00001 16.334C3.70725 16.334 4.38553 16.6149 4.88563 17.115C5.38573 17.6151 5.66668 18.2934 5.66668 19.0007C5.66668 19.7079 5.38573 20.3862 4.88563 20.8863C4.38553 21.3864 3.70725 21.6673 3.00001 21.6673C2.29277 21.6673 1.61449 21.3864 1.11439 20.8863C0.614296 20.3862 0.333344 19.7079 0.333344 19.0007C0.333344 18.2934 0.614296 17.6151 1.11439 17.115C1.61449 16.6149 2.29277 16.334 3.00001 16.334ZM3.00001 8.33398C3.70725 8.33398 4.38553 8.61494 4.88563 9.11503C5.38573 9.61513 5.66668 10.2934 5.66668 11.0007C5.66668 11.7079 5.38573 12.3862 4.88563 12.8863C4.38553 13.3864 3.70725 13.6673 3.00001 13.6673C2.29277 13.6673 1.61449 13.3864 1.11439 12.8863C0.614296 12.3862 0.333344 11.7079 0.333344 11.0007C0.333344 10.2934 0.614296 9.61513 1.11439 9.11503C1.61449 8.61494 2.29277 8.33398 3.00001 8.33398ZM3.00001 0.333984C3.70725 0.333984 4.38553 0.614936 4.88563 1.11503C5.38573 1.61513 5.66668 2.29341 5.66668 3.00065C5.66668 3.7079 5.38573 4.38617 4.88563 4.88627C4.38553 5.38637 3.70725 5.66732 3.00001 5.66732C2.29277 5.66732 1.61449 5.38637 1.11439 4.88627C0.614296 4.38617 0.333344 3.7079 0.333344 3.00065C0.333344 2.29341 0.614296 1.61513 1.11439 1.11503C1.61449 0.614936 2.29277 0.333984 3.00001 0.333984Z" fill="#F2F2F2"/>
</svg>
