<svg width="22" height="22" viewBox="0 0 22 22" fill="none" xmlns="http://www.w3.org/2000/svg">
<path d="M21.0613 18.938C21.343 19.2198 21.5014 19.602 21.5014 20.0005C21.5014 20.399 21.343 20.7812 21.0613 21.063C20.7795 21.3448 20.3973 21.5031 19.9988 21.5031C19.6002 21.5031 19.218 21.3448 18.9363 21.063L11 13.1242L3.06126 21.0605C2.77946 21.3423 2.39727 21.5006 1.99876 21.5006C1.60024 21.5006 1.21805 21.3423 0.936257 21.0605C0.654464 20.7787 0.496155 20.3965 0.496155 19.998C0.496155 19.5995 0.654464 19.2173 0.936257 18.9355L8.87501 10.9992L0.938756 3.06049C0.656964 2.7787 0.498655 2.39651 0.498655 1.99799C0.498655 1.59948 0.656964 1.21729 0.938756 0.935493C1.22055 0.6537 1.60274 0.49539 2.00126 0.49539C2.39977 0.49539 2.78196 0.6537 3.06376 0.935493L11 8.87424L18.9388 0.934242C19.2205 0.65245 19.6027 0.494141 20.0013 0.494141C20.3998 0.494141 20.782 0.65245 21.0638 0.934242C21.3455 1.21603 21.5039 1.59823 21.5039 1.99674C21.5039 2.39526 21.3455 2.77745 21.0638 3.05924L13.125 10.9992L21.0613 18.938Z" fill="#F2F2F2"/>
</svg>
